# xmcd
#
# Track frame offsets:
#	150
#	18202
#	33600
#	51313
#	91295
#
# Disc length: 3632 seconds
# Revision: 0
# Processed by: cddbd v1.5.2PL0 Copyright (c) Steve Scherf et al.
# Submitted via: dBpowerAMP V12.0
#
DISCID=370e2e05
DTITLE=Treves Blues Band - Live 2008 CD2
DYEAR=2008
DGENRE=Blues
TTITLE0=You gotta move
TTITLE1=One of a kind
TTITLE2=Your funeral and my trial
TTITLE3=Shame shame shame
TTITLE4=DATA
EXTD=
EXTT0=
EXTT1=
EXTT2=
EXTT3=
EXTT4=
PLAYORDER=
